<?xml version="1.0" encoding="UTF-8"?><svg id="Layer_1" xmlns="http://www.w3.org/2000/svg" xmlns:xlink="http://www.w3.org/1999/xlink" viewBox="0 0 128 128"><defs><style>.cls-1{fill:#f04e62;stroke:#f4f9ff;stroke-miterlimit:10;}.cls-2{fill:#fff;}.cls-2,.cls-3,.cls-4{stroke-width:0px;}.cls-3{fill:#f4f9ff;}.cls-4{fill:#28a08c;filter:url(#drop-shadow-1);}</style><filter id="drop-shadow-1" filterUnits="userSpaceOnUse"><feOffset dx="4" dy="4"/><feGaussianBlur result="blur" stdDeviation="7"/><feFlood flood-color="#000" flood-opacity=".26"/><feComposite in2="blur" operator="in"/><feComposite in="SourceGraphic"/></filter></defs><rect id="background" class="cls-3" width="128" height="128"/><g id="bubble"><circle class="cls-4" cx="74.87" cy="75.5" r="40"/><path class="cls-2" d="M74.87,90.74c11.22,0,20.32-7.39,20.32-16.51s-9.1-16.51-20.32-16.51-20.32,7.39-20.32,16.51c0,3.58,1.4,6.89,3.79,9.6-.15,1.94-.9,3.68-1.7,4.99-.44.73-.88,1.32-1.21,1.71-.17.2-.29.35-.39.45-.05.05-.08.09-.1.11l-.02.02h0c-.37.37-.47.9-.27,1.38s.66.79,1.17.79c2.28,0,4.57-.71,6.48-1.53,1.82-.79,3.37-1.74,4.31-2.43,2.52.91,5.32,1.42,8.26,1.42h0ZM64.71,71.69c1.4,0,2.54,1.14,2.54,2.54s-1.14,2.54-2.54,2.54-2.54-1.14-2.54-2.54,1.14-2.54,2.54-2.54ZM74.87,71.69c1.4,0,2.54,1.14,2.54,2.54s-1.14,2.54-2.54,2.54-2.54-1.14-2.54-2.54,1.14-2.54,2.54-2.54ZM82.49,74.23c0-1.4,1.14-2.54,2.54-2.54s2.54,1.14,2.54,2.54-1.14,2.54-2.54,2.54-2.54-1.14-2.54-2.54Z"/><circle id="notification" class="cls-1" cx="100" cy="43.93" r="8.43"/></g></svg>