<?xml version="1.0" encoding="UTF-8"?><svg id="Layer_2" xmlns="http://www.w3.org/2000/svg" viewBox="0 0 1078.43 236.09"><defs><style>.cls-1{fill:#142828;stroke-width:0px;}</style></defs><g id="Layer_1-2"><path class="cls-1" d="M51.3,230.51L0,10.26h80.71l16.76,84.13,12.65-46.85V10.26h67.37l24.62,84.47,18.81-84.47h80.37l-50.96,220.25h-72.16l-26.33-86.87-28.39,86.87H51.3Z"/><path class="cls-1" d="M387.48,233.93c-19.15,0-36.31-3.2-51.47-9.58-15.17-6.38-27.19-15.79-36.08-28.22-8.89-12.42-13.34-27.76-13.34-46,0-25.76,7.7-46.39,23.08-61.9,15.39-15.5,38.36-23.26,68.91-23.26,27.81,0,50.04,6.84,66.69,20.52,16.64,13.68,24.97,33.17,24.97,58.48v27.7h-108.07c3.42,4.33,9.06,7.7,16.93,10.09,7.87,2.39,18.07,3.59,30.61,3.59,10.26,0,20.18-.85,29.75-2.56s17.1-3.59,22.57-5.64v44.46c-17.1,8.21-41.95,12.31-74.56,12.31ZM362.18,130.3h37.28v-3.08c0-3.19-1.26-6.21-3.76-9.06-2.51-2.85-7.3-4.27-14.36-4.27s-11.75,1.6-14.71,4.79c-2.97,3.2-4.45,7.07-4.45,11.63Z"/><path class="cls-1" d="M608.41,233.93c-9.81,0-18.36-1.26-25.65-3.76-7.3-2.51-13.91-5.93-19.84-10.26l-3.76,10.6h-71.82V0h82.76v71.14c4.33-1.82,9.8-3.3,16.42-4.45,6.61-1.14,12.88-1.71,18.81-1.71,25.08,0,44.63,6.27,58.65,18.81,14.02,12.54,21.03,33.98,21.03,64.3s-7.01,50.5-21.03,64.64c-14.02,14.14-32.55,21.2-55.58,21.2ZM584.47,174.76c5.01,0,8.95-1.76,11.8-5.3,2.85-3.53,4.27-10.2,4.27-20.01s-1.43-16.47-4.27-20.01c-2.85-3.53-6.79-5.3-11.8-5.3-5.47,0-10.26,1.71-14.36,5.13v40.36c2.28,1.6,4.5,2.85,6.67,3.76,2.16.91,4.73,1.37,7.69,1.37Z"/><path class="cls-1" d="M1028.16,233.93c-24.85,0-42.58-6.04-53.18-18.13-10.6-12.08-15.9-28.39-15.9-48.91v-38.99h-19.49v-59.51h19.49v-31.81l82.76-16.76v48.56h33.17l-1.71,59.51h-31.46v34.54c0,9.58,5.35,14.36,16.07,14.36,7.06,0,13.9-1.14,20.52-3.42v51.3c-7.07,2.97-14.59,5.25-22.57,6.84-7.98,1.59-17.22,2.39-27.7,2.39Z"/><path class="cls-1" d="M945.97,231.28l-33.86-29.66c12.63-13.29,19.78-30.67,19.78-52.16,0-56.31-49.09-84.47-117.26-84.47-34.43,0-75.02,7.07-91.78,21.2-16.76,14.14-25.14,35.23-25.14,63.27s8.38,49.14,25.14,63.27c16.76,14.14,57.35,21.2,91.78,21.2,19.99,0,38.34-2.42,54.29-7.27,1.84-.56,3.78-.74,5.69-.47l69.17,9.87c2.7.39,4.25-2.98,2.2-4.78ZM749.05,170.59c-8.92,0-16.15-7.23-16.15-16.15s7.23-16.15,16.15-16.15,16.15,7.23,16.15,16.15-7.23,16.15-16.15,16.15ZM814.25,170.59c-8.92,0-16.15-7.23-16.15-16.15s7.23-16.15,16.15-16.15,16.15,7.23,16.15,16.15-7.23,16.15-16.15,16.15ZM879.45,170.59c-8.92,0-16.15-7.23-16.15-16.15s7.23-16.15,16.15-16.15,16.15,7.23,16.15,16.15-7.23,16.15-16.15,16.15Z"/></g></svg>